<?xml version="1.0" encoding="utf-8"?>
<!-- Generator: Adobe Illustrator 22.0.1, SVG Export Plug-In . SVG Version: 6.00 Build 0)  -->
<svg version="1.1" id="layer" xmlns="http://www.w3.org/2000/svg" xmlns:xlink="http://www.w3.org/1999/xlink" x="0px" y="0px"
	 viewBox="0 0 191.2 44.5" style="enable-background:new 0 0 191.2 44.5;" xml:space="preserve">
<style type="text/css">
	.st0{fill:#2D5992;}
</style>
<g>
	<path class="st0" d="M132.4,31.3h-2.6v-0.6c0-2.6,0-5.3,0-7.9c0-0.2,0-0.4,0-0.5c-0.2-1.2-1-2-2.2-2.1c-0.9-0.1-1.7,0-2.5,0.2
		c-0.5,0.1-0.5,0.1-0.5,0.6c0,3.2,0,6.4,0,9.7c0,0.2,0,0.4,0,0.6h-2.5c0-0.2,0-0.3,0-0.4c0-3.8,0-7.6,0-11.5c0-0.4,0-0.5,0.4-0.6
		c2.1-0.7,4.3-1,6.6-0.6c0.4,0.1,0.7,0.2,1.1,0.3c1.6,0.6,2.4,1.8,2.5,3.5c0.1,3,0,6.1,0,9C132.4,31.1,132.4,31.2,132.4,31.3"/>
	<path class="st0" d="M142.9,18h2.5c0,0.2,0,0.3,0,0.4c0,3.8,0,7.6,0,11.5c0,0.4,0,0.4-0.4,0.6c-0.8,0.3-1.7,0.5-2.6,0.6
		c-1.1,0.1-2.3,0.2-3.4,0c-0.5-0.1-1.1-0.2-1.6-0.4c-1.3-0.5-2-1.6-2.2-3c-0.1-0.4-0.1-0.9-0.1-1.3c0-2.6,0-5.2,0-7.8V18h2.6v0.6
		c0,2.6,0,5.3,0,7.9c0,0.3,0,0.6,0.1,1c0.2,0.8,0.6,1.2,1.3,1.5c0.7,0.2,1.3,0.2,2,0.2c0.4,0,0.8-0.2,1.3-0.2c0.2,0,0.3-0.2,0.3-0.4
		c0-0.2,0-0.3,0-0.5c0-3.1,0-6.2,0-9.3C142.9,18.5,142.9,18.3,142.9,18"/>
	<path class="st0" d="M147.4,31.3c1.5-2.4,3-4.6,4.5-6.9c-1.4-2.1-2.7-4.2-4.1-6.4h1.2c0.4,0,0.9,0,1.3,0c0.3,0,0.5,0.1,0.7,0.4
		c0.7,1.3,1.5,2.5,2.2,3.8c0.1,0.2,0.2,0.3,0.3,0.5c0.1-0.2,0.2-0.3,0.3-0.4c0.8-1.3,1.5-2.5,2.3-3.9c0.2-0.3,0.4-0.4,0.7-0.4
		c0.6,0,1.3,0,1.9,0c0.1,0,0.3,0,0.5,0c-0.1,0.2-0.2,0.4-0.3,0.5c-1.2,1.8-2.4,3.7-3.6,5.5c-0.2,0.3-0.2,0.5,0,0.8
		c1.3,1.9,2.5,3.9,3.8,5.8c0.1,0.2,0.3,0.4,0.4,0.7c-0.2,0-0.3,0-0.4,0c-0.7,0-1.5,0-2.2,0c-0.3,0-0.4-0.1-0.6-0.3
		c-0.9-1.4-1.7-2.9-2.6-4.3c-0.1-0.2-0.2-0.3-0.3-0.5c-0.2,0.3-0.3,0.4-0.4,0.6c-0.8,1.4-1.7,2.8-2.5,4.2c-0.2,0.3-0.3,0.4-0.6,0.4
		C149.2,31.3,148.3,31.3,147.4,31.3"/>
	<path class="st0" d="M105.2,11.9h2.6c0.2,0.2,0.1,0.5,0.1,0.7c0,5.2,0,10.4,0,15.5c0,0.3,0,0.5,0,0.9h6v2.2c-0.4,0.1-8,0.1-8.7,0
		c0-1.3,0-2.5,0-3.9s0-2.6,0-3.9v-3.9c0-1.3,0-2.6,0-3.9C105.2,14.5,105.2,13.2,105.2,11.9"/>
	<path class="st0" d="M179.6,21.7c0,1.7-0.1,3.3-0.6,4.9c-0.3,1.1-0.8,2.1-1.6,3c-0.9,1-2,1.5-3.3,1.7c-0.9,0.1-1.7,0.1-2.5-0.2
		c-1.6-0.4-2.6-1.5-3.4-3c-0.5-1.1-0.8-2.2-1-3.3c-0.2-1.4-0.2-2.9-0.2-4.3c0.1-1.7,0.4-3.3,1.1-4.8c0.5-1.1,1.1-2,2-2.7
		c1.2-0.9,2.5-1.1,3.9-1c1.4,0.2,2.5,0.7,3.4,1.8c0.5,0.6,0.9,1.3,1.2,2.1c0.5,1.4,0.8,2.9,0.9,4.5
		C179.6,20.8,179.6,21.2,179.6,21.7 M168.7,21.7c0,0.8,0.1,1.5,0.2,2.3c0.1,1.1,0.4,2.2,0.9,3.3c0.7,1.3,1.7,2.2,3.2,2.3
		c1.3,0.1,2.5-0.2,3.4-1.2c0.6-0.6,1-1.4,1.2-2.3c0.3-1,0.4-2.1,0.5-3.2c0.1-1.7,0-3.4-0.3-5c-0.2-1.1-0.6-2-1.3-2.8
		c-1.4-1.7-4-1.6-5.4-0.4c-0.8,0.7-1.3,1.6-1.6,2.7C168.9,18.8,168.7,20.2,168.7,21.7"/>
	<path class="st0" d="M181.1,28c0.2,0.1,0.3,0.2,0.5,0.3c1.4,0.7,3,1.2,4.6,1.1c0.6,0,1.2-0.1,1.8-0.4c1-0.5,1.5-1.4,1.6-2.5
		c0.1-1.4-0.4-2.5-1.5-3.3c-0.8-0.5-1.6-0.9-2.4-1.3c-0.8-0.4-1.6-0.8-2.4-1.2c-1-0.6-1.7-1.4-2-2.5c-0.3-1.3-0.3-2.7,0.3-4
		c0.6-1.3,1.7-2.1,3-2.4c1.8-0.4,3.6-0.1,5.3,0.9c0.4,0.2,0.4,0.3,0.3,0.7c-0.1,0.4-0.3,0.8-0.4,1.2c-0.2-0.1-0.3-0.1-0.4-0.2
		c-0.9-0.5-1.9-0.8-3-0.9c-0.6-0.1-1.2,0-1.8,0.2c-1.2,0.4-2,1.5-1.9,3.1c0.1,1,0.5,1.7,1.2,2.2c0.6,0.4,1.2,0.7,1.8,1
		c0.8,0.4,1.6,0.8,2.4,1.1c0.4,0.2,0.7,0.4,1,0.6c1.6,1.2,2.2,2.8,2,4.8c-0.1,0.6-0.2,1.1-0.4,1.7c-0.6,1.6-1.8,2.5-3.3,2.8
		c-2.3,0.4-4.5,0-6.6-1.1c-0.4-0.3-0.4-0.3-0.3-0.8c0.1-0.3,0.2-0.6,0.3-0.9C181,28.2,181,28.2,181.1,28"/>
	<path class="st0" d="M100.9,18.1c0-0.2,0-0.4,0-0.6c0-1.7,0-3.3,0-4.9c0-0.2,0-0.4,0-0.6h1.3c0,0.2,0.1,0.3,0.1,0.5
		c0,0.5,0,1,0,1.6c0,5.3,0,10.5,0,15.8c0,0.3-0.1,0.5-0.4,0.6c-0.8,0.4-1.6,0.7-2.4,0.8c-1,0.2-2,0.2-3,0C95,31,94,30.2,93.4,28.7
		c-0.4-0.9-0.5-1.9-0.6-2.9c-0.1-1.6-0.1-3.1,0.3-4.7c0.1-0.3,0.2-0.6,0.3-1c0.6-1.4,1.7-2.2,3.2-2.4c1.3-0.2,2.6,0,3.9,0.3
		C100.7,18.1,100.8,18.1,100.9,18.1 M100.9,24.6c0-1.5,0-3.1,0-4.6c0-0.5,0-0.5-0.4-0.6c-1.1-0.3-2.1-0.4-3.2-0.4
		c-1.1,0.1-2,0.5-2.5,1.6c-0.2,0.5-0.4,1.1-0.5,1.7c-0.3,1.5-0.3,2.9-0.1,4.4c0.1,0.6,0.3,1.3,0.4,1.9c0.3,0.9,1,1.4,1.9,1.6
		c1.3,0.3,2.5,0.1,3.8-0.3c0.5-0.1,0.5-0.2,0.5-0.7C100.9,27.6,100.9,26,100.9,24.6"/>
	<path class="st0" d="M68.2,24.6c0-1.2,0-2.4,0.4-3.5c0.1-0.2,0.1-0.4,0.2-0.6c0.5-1.4,1.5-2.3,3-2.5c1.1-0.2,2.2-0.2,3.3,0.1
		c1.1,0.3,1.8,1,2.3,1.9c0.4,0.8,0.6,1.6,0.7,2.5c0.1,1.1,0.1,2.3,0.1,3.5c0,0.9-0.2,1.8-0.5,2.6c-0.5,1.6-1.6,2.6-3.3,2.8
		c-0.9,0.1-1.7,0.1-2.5-0.1c-1.4-0.3-2.4-1.1-2.9-2.5c-0.4-1-0.6-2-0.6-3C68.2,25.3,68.2,24.9,68.2,24.6 M76.7,24.6
		c-0.1-0.7-0.1-1.5-0.2-2.2s-0.3-1.5-0.7-2.1c-0.3-0.6-0.8-1-1.5-1.2c-0.7-0.2-1.4-0.2-2.1-0.1c-1.1,0.2-1.9,0.8-2.3,1.9
		c-0.2,0.5-0.4,1.1-0.4,1.7c-0.1,1.1-0.1,2.3-0.1,3.4c0,0.8,0.2,1.6,0.5,2.4c0.4,0.8,0.9,1.4,1.8,1.6c0.8,0.2,1.5,0.2,2.3,0.1
		c1.1-0.2,1.8-0.9,2.1-1.9c0.1-0.2,0.1-0.3,0.1-0.5C76.6,26.7,76.7,25.7,76.7,24.6"/>
	<path class="st0" d="M60.6,29.2c0.2,0.4,0.3,0.7,0.5,1.1c-0.1,0.1-0.1,0.1-0.2,0.2c-2.1,1-4.2,1.1-6.3,0.2c-1.4-0.6-2.3-1.7-3-3.1
		c-0.6-1.2-0.9-2.5-1.1-3.8c-0.2-1.3-0.2-2.6,0-3.9c0.2-1.9,0.8-3.6,2-5.1c1.3-1.6,3-2.3,5-2.3c1.1,0,2.1,0.2,3.2,0.7
		c0.2,0.1,0.3,0.2,0.5,0.3c-0.2,0.4-0.3,0.8-0.5,1.2c-0.2-0.1-0.3-0.1-0.4-0.2c-1.1-0.5-2.3-0.7-3.5-0.5c-1.4,0.2-2.4,0.9-3.2,2
		c-0.7,1-1.1,2.2-1.3,3.4c-0.3,2-0.3,3.9,0.2,5.9c0.3,1.4,0.9,2.6,2,3.5c0.9,0.8,1.8,1.1,3,1.2c1.1,0,2.2-0.1,3.2-0.7
		C60.4,29.2,60.5,29.2,60.6,29.2"/>
	<path class="st0" d="M88.9,18h1.3c0.1,0.4,0.2,11.7,0,12.4c-0.6,0.3-1.3,0.5-2,0.6c-1.3,0.3-2.5,0.4-3.8,0.2
		c-0.5-0.1-1-0.2-1.4-0.4c-1.2-0.6-1.9-1.7-2.1-3c-0.1-0.4-0.1-0.8-0.1-1.2c0-2.6,0-5.3,0-7.9c0-0.2,0-0.4,0-0.6h1.3
		c0,0.2,0,0.4,0,0.6c0,2.7,0,5.3,0,8c0,0.4,0,0.9,0.1,1.3c0.3,1.1,1,1.8,2.1,2c0.8,0.2,1.6,0.2,2.4,0.1c0.5-0.1,1.1-0.2,1.6-0.4
		c0.3-0.1,0.4-0.2,0.4-0.5c0-0.8,0-1.6,0-2.3c0-2.7,0-5.5,0-8.2C88.9,18.5,88.9,18.2,88.9,18"/>
	<path class="st0" d="M116.6,18c0.2,0,0.3,0,0.4,0c0.7,0,1.4,0,2.1,0c0.1,0.4,0.2,12.7,0,13.3h-2.5L116.6,18L116.6,18z"/>
	<path class="st0" d="M65.3,31.3c-0.1,0-0.2,0-0.3,0c-0.3,0-0.6,0-1,0C64,31,63.9,12.6,64,11.9h1.2C65.4,12.3,65.4,30.9,65.3,31.3"
		/>
	<path class="st0" d="M119.4,14c0,0.9-0.7,1.5-1.6,1.5c-0.9,0-1.5-0.7-1.5-1.5c0-0.8,0.7-1.5,1.6-1.5
		C118.7,12.5,119.4,13.2,119.4,14"/>
	<path class="st0" d="M161.4,16.2c0.3-0.1,0.4,0,0.5,0.3c0.1,0.3,0.2,0.5,0.3,0.8c0.2-0.3,0.3-0.6,0.4-0.8c0.1-0.3,0.2-0.4,0.5-0.3
		c0.1,0.5,0.2,1.1,0.2,1.7c-0.4,0-0.3-0.3-0.3-0.5c0-0.2-0.1-0.4-0.1-0.6c0,0-0.1,0-0.1,0c-0.1,0.3-0.2,0.6-0.3,0.9
		c0,0.1-0.1,0.1-0.2,0.2c-0.1-0.1-0.2-0.1-0.2-0.2c-0.1-0.3-0.2-0.6-0.3-0.9c-0.3,0.4,0,0.8-0.4,1.1c0,0-0.1,0-0.1,0
		C161.1,17.6,161.2,16.9,161.4,16.2"/>
	<path class="st0" d="M161,16.3c-0.1,0.1-0.3,0.2-0.4,0.3v1.3c-0.1,0-0.2,0-0.3,0v-1.4c-0.2-0.1-0.3-0.2-0.5-0.2
		C160,16.1,160.3,16.1,161,16.3C160.9,16.3,160.9,16.3,161,16.3"/>
	<path class="st0" d="M17.5,0.9c0.1,0,0.2-0.1,0.2-0.1c1.8-0.5,3.5-0.9,5.4-0.8c4.7,0.3,8.6,2.3,11.4,6.1c1.3,1.8,2.2,3.8,2.6,6
		c0.1,0.6,0,1.2-0.1,1.8c-0.5,3.1-1.9,5.7-4.1,7.9c-0.1,0.1-0.1,0.1-0.2,0.2c0,0-0.1,0-0.1,0c0.1-0.2,0.1-0.4,0.2-0.5
		c1-3.4,0.9-6.8-0.3-10.1c-0.3-0.9-0.8-1.7-1.4-2.5c-0.4-0.6-0.9-1.1-1.3-1.7c-2.6-3.4-6.1-5.4-10.4-6.1C18.8,1,18.2,1,17.5,0.9"/>
	<path class="st0" d="M29.5,15.1c-2.6-4.7-6.5-7.7-11.8-8.6c-5.3-1-9.9,0.5-14,4c0.1-0.1,0.1-0.3,0.2-0.4c2.2-3.9,5.4-6.4,9.7-7.3
		c4.3-1,8.3-0.2,11.9,2.2c0.3,0.2,0.6,0.5,0.9,0.8c2.1,2.6,3.1,5.6,3.2,9C29.6,14.8,29.6,14.9,29.5,15.1"/>
	<path class="st0" d="M14.9,15.3c-4.7,2.5-7.7,6.3-8.6,11.6c-1,5.2,0.5,9.8,4.1,13.9c-0.2-0.1-0.3-0.1-0.3-0.2
		c-4.2-2.3-6.8-5.8-7.6-10.5c-0.7-4,0.1-7.7,2.4-11c0.2-0.2,0.3-0.4,0.5-0.6c2.3-1.9,4.9-3,7.8-3.2C13.8,15.2,14.3,15.2,14.9,15.3
		L14.9,15.3z"/>
	<path class="st0" d="M40.5,34.2c-0.6,1.3-1.5,2.5-2.5,3.5c-2.5,2.6-5.5,4.1-9.1,4.5c-3.7,0.4-7-0.5-10-2.6
		c-0.2-0.1-0.4-0.3-0.5-0.4c-1.8-2.1-2.9-4.5-3.2-7.3c-0.1-0.6-0.1-1.2-0.1-1.8c0-0.2,0-0.4,0.1-0.6c2.5,4.7,6.3,7.6,11.6,8.6
		C31.9,39.1,36.6,37.6,40.5,34.2"/>
	<path class="st0" d="M22.1,12.3c-5.1-1.5-10-1-14.3,2c-4.4,3-6.6,7.3-6.9,12.7c-0.1-0.1-0.1-0.2-0.1-0.3
		c-2.5-7.9,2.2-16.4,10.1-18.6c0.3-0.1,0.6-0.2,1-0.3c0.9-0.2,1.7-0.1,2.5,0.1c2.9,0.6,5.4,1.9,7.5,4C21.9,12,22,12.1,22.1,12.3"/>
	<path class="st0" d="M26.8,43.8c-0.6,0.2-1.2,0.3-1.8,0.4c-6.4,1.2-12.7-1.8-15.8-7.6c-0.8-1.4-1.3-2.9-1.5-4.5
		c-0.1-0.4,0-0.9,0.1-1.3c0.4-3.2,1.8-6,4.2-8.3c0.1-0.1,0.2-0.1,0.3-0.2c-1.5,5.1-1,9.9,2,14.3C17.1,41.1,21.4,43.3,26.8,43.8
		C26.7,43.7,26.7,43.7,26.8,43.8"/>
	<path class="st0" d="M29.7,29.5c4.7-2.5,7.6-6.3,8.6-11.5c1-5.2-0.5-9.8-4-13.9c0.2,0.1,0.4,0.2,0.6,0.3c4,2.4,6.5,5.8,7.2,10.4
		c0.7,4-0.2,7.6-2.5,10.9c-0.1,0.2-0.3,0.4-0.5,0.5c-2.2,1.8-4.7,2.9-7.5,3.2C31,29.5,30.4,29.5,29.7,29.5
		C29.7,29.5,29.7,29.5,29.7,29.5"/>
	<path class="st0" d="M43.9,17.6c0.3,0.8,0.5,1.7,0.6,2.5c0.4,3.5-0.2,6.8-2.1,9.8c-2.3,3.7-5.6,6-9.9,6.8c-0.6,0.1-1.2,0-1.8-0.1
		c-3.2-0.5-5.9-1.9-8.1-4.3c0,0-0.1-0.1-0.1-0.2c5.1,1.5,9.9,1,14.3-2C41.3,27.2,43.5,22.9,43.9,17.6"/>
	<path class="st0" d="M28.2,15.6c-0.1-0.1-0.1-0.1-0.2-0.2c-0.8-0.7-1.7-1.3-2.6-1.9c-0.2-0.1-0.4-0.3-0.4-0.4
		c-1.3-1.9-2.9-3.5-4.9-4.7c-0.1,0-0.1-0.1-0.2-0.1c0,0,0,0-0.1-0.1C23.7,9.6,26.4,12,28.2,15.6"/>
	<path class="st0" d="M8.3,24.9c0.6-3,4.7-7.6,7.4-8.4c-0.1,0.1-0.1,0.2-0.2,0.2c-0.7,0.8-1.3,1.7-1.9,2.6c-0.1,0.2-0.2,0.3-0.4,0.4
		c-1.9,1.3-3.5,3-4.8,5C8.4,24.8,8.3,24.8,8.3,24.9"/>
	<path class="st0" d="M10.5,14.3c2.4-1.6,8.8-2,11-0.7c-0.7,0.1-1.5,0.2-2.2,0.3c-0.3,0.1-0.7,0.1-1,0.2c-0.3,0.1-0.6,0.1-1,0
		c-2.2-0.4-4.3-0.4-6.5,0.1C10.8,14.3,10.7,14.3,10.5,14.3"/>
	<path class="st0" d="M14.2,34c-1.8-3.6-2-7.3-0.7-11.1c0.1,0.5,0.1,1,0.2,1.5c0.1,0.7,0.3,1.3,0.4,1.9c0,0.2,0.1,0.4,0,0.6
		C13.5,29.2,13.6,31.6,14.2,34C14.2,33.9,14.2,34,14.2,34"/>
	<path class="st0" d="M24.8,36.3c-3.8-1.4-6.5-3.8-8.3-7.4c0.1,0.1,0.2,0.1,0.2,0.2c0.8,0.7,1.7,1.3,2.5,1.8
		c0.2,0.1,0.3,0.2,0.4,0.4c1.3,2,3,3.6,5,4.8C24.6,36.1,24.7,36.2,24.8,36.3C24.8,36.2,24.8,36.2,24.8,36.3"/>
	<path class="st0" d="M29.1,27.9c0.2-0.2,0.4-0.4,0.5-0.6c0.5-0.7,1-1.5,1.6-2.2c0.1-0.2,0.2-0.3,0.4-0.4c1.9-1.3,3.5-2.9,4.7-4.8
		c0-0.1,0.1-0.1,0.1-0.2c0,0,0,0,0.1-0.1C35.1,23.4,32.7,26.2,29.1,27.9C29.2,27.9,29.2,27.9,29.1,27.9"/>
	<path class="st0" d="M31.3,21.6c-0.1-1.2-0.3-2.4-0.6-3.6c0-0.1,0-0.3,0-0.4c0.3-1.5,0.4-2.9,0.3-4.4c-0.1-0.8-0.3-1.6-0.4-2.4
		c0-0.1,0-0.2,0-0.3c0.9,1.7,1.3,3.5,1.4,5.4C32.1,17.9,31.9,19.8,31.3,21.6"/>
	<path class="st0" d="M34.1,30.2c-3.6,1.7-7.2,1.9-11,0.8c0,0,0-0.1,0-0.1c0.4,0,0.8-0.1,1.1-0.1c0.8-0.1,1.5-0.3,2.2-0.4
		c0.2,0,0.4-0.1,0.6,0c2.3,0.4,4.5,0.4,6.8-0.1C34,30.2,34.1,30.2,34.1,30.2"/>
</g>
</svg>
