<?xml version="1.0" encoding="utf-8"?>
<!-- Generator: Adobe Illustrator 22.0.1, SVG Export Plug-In . SVG Version: 6.00 Build 0)  -->
<svg version="1.1" id="Layer_1" xmlns="http://www.w3.org/2000/svg" xmlns:xlink="http://www.w3.org/1999/xlink" x="0px" y="0px"
	 viewBox="0 0 227 50.2" style="enable-background:new 0 0 227 50.2;" xml:space="preserve">
<style type="text/css">
	.st0{fill:#FF6C2C;}
</style>
<g>
	<path class="st0" d="M18.8,12.4H33l-2.2,8.4c-0.3,1.2-1,2.1-1.9,2.8c-0.9,0.7-2,1.1-3.2,1.1h-6.6c-1.5,0-2.8,0.4-4,1.3
		c-1.2,0.9-2,2.1-2.4,3.6c-0.3,1.1-0.3,2.2-0.1,3.2c0.2,1,0.6,1.9,1.2,2.7c0.6,0.8,1.3,1.4,2.3,1.9c0.9,0.5,1.9,0.7,3,0.7h4
		c0.8,0,1.4,0.3,1.9,0.9c0.5,0.6,0.6,1.3,0.4,2l-2.5,9.3h-4.4c-3,0-5.8-0.7-8.3-2c-2.5-1.3-4.6-3.1-6.3-5.2
		c-1.7-2.2-2.8-4.7-3.4-7.4c-0.6-2.8-0.5-5.6,0.2-8.6L0.9,26c0.5-2,1.4-3.9,2.5-5.6c1.2-1.7,2.5-3.1,4.1-4.3
		c1.6-1.2,3.3-2.1,5.2-2.8C14.7,12.7,16.7,12.4,18.8,12.4z M25.9,50.2L38.3,3.9c0.3-1.2,1-2.1,1.9-2.8c0.9-0.7,2-1.1,3.2-1.1h13.1
		c3,0,5.8,0.7,8.3,2c2.5,1.3,4.6,3.1,6.3,5.2c1.7,2.2,2.8,4.7,3.5,7.4c0.6,2.8,0.5,5.6-0.3,8.6l-0.3,0.9c-0.5,2-1.4,3.9-2.5,5.6
		c-1.1,1.7-2.5,3.1-4,4.4c-1.6,1.2-3.3,2.2-5.2,2.8c-1.9,0.7-3.9,1-6,1H44.9l2.3-8.5c0.3-1.1,1-2,1.9-2.8c0.9-0.7,2-1.1,3.2-1.1h3.6
		c1.5,0,2.9-0.5,4-1.4c1.2-0.9,2-2.1,2.4-3.6c0.3-1,0.3-2.1,0.1-3.1c-0.2-1-0.6-1.9-1.2-2.7c-0.6-0.8-1.3-1.4-2.3-1.9
		c-0.9-0.5-1.9-0.7-3-0.7h-7l-9.2,34.1c-0.3,1.1-1,2.1-1.9,2.8c-0.9,0.7-2,1.1-3.1,1.1H25.9z M104.2,25.5l0.2-0.7
		c0.1-0.3,0-0.6-0.2-0.8c-0.2-0.2-0.4-0.3-0.8-0.3H83c-0.9,0-1.7-0.2-2.4-0.6c-0.7-0.4-1.3-0.9-1.8-1.5c-0.5-0.6-0.8-1.3-0.9-2.1
		c-0.2-0.8-0.1-1.6,0.1-2.4l1.3-4.8h27.6c1.7,0,3.3,0.4,4.7,1.1c1.4,0.8,2.6,1.7,3.5,2.9c0.9,1.2,1.6,2.6,1.9,4.2
		c0.4,1.6,0.3,3.2-0.1,4.9l-5,18.5c-0.5,1.9-1.5,3.4-3,4.6c-1.5,1.2-3.3,1.8-5.2,1.8l-20.4-0.1c-1.8,0-3.5-0.4-5-1.2
		c-1.5-0.8-2.7-1.8-3.7-3.1c-1-1.3-1.6-2.7-2-4.4c-0.4-1.7-0.3-3.3,0.1-5.1l0.3-0.9c0.3-1.2,0.8-2.3,1.5-3.3c0.7-1,1.5-1.9,2.4-2.6
		c0.9-0.7,1.9-1.3,3.1-1.7c1.1-0.4,2.3-0.6,3.6-0.6h17.1l-1.3,4.7c-0.3,1.1-1,2.1-1.9,2.8c-0.9,0.7-2,1.1-3.1,1.1h-7.7
		c-0.7,0-1.2,0.4-1.4,1.1c-0.1,0.5,0,0.9,0.3,1.2c0.3,0.4,0.7,0.5,1.1,0.5h12.4c0.5,0,0.9-0.1,1.2-0.4c0.3-0.3,0.5-0.6,0.6-1
		l0.1-0.5L104.2,25.5z M140.7,12.4c3.1,0,5.8,0.7,8.4,2c2.5,1.3,4.6,3.1,6.3,5.2c1.7,2.2,2.8,4.7,3.4,7.5c0.6,2.8,0.5,5.7-0.3,8.6
		l-3.1,11.8c-0.2,0.8-0.7,1.5-1.3,2c-0.7,0.5-1.5,0.8-2.3,0.8H145c-0.8,0-1.4-0.3-1.9-0.9c-0.5-0.6-0.6-1.3-0.4-2l3.8-14.2
		c0.3-1,0.3-2.1,0.1-3.1c-0.2-1-0.6-1.9-1.2-2.7c-0.6-0.8-1.3-1.4-2.3-1.9c-0.9-0.5-1.9-0.7-3-0.7h-7L127,47.5
		c-0.2,0.8-0.7,1.5-1.3,2c-0.7,0.5-1.5,0.8-2.4,0.8h-6.7c-0.8,0-1.4-0.3-1.9-0.9c-0.5-0.6-0.6-1.3-0.4-2l9.3-34.9H140.7z
		 M177.7,24.3c-0.5,0.4-0.9,0.9-1.1,1.5l-2.8,10.7c-0.2,0.6-0.1,1.1,0.3,1.6c0.4,0.5,0.9,0.8,1.5,0.8h26l-2,7.5
		c-0.3,1.1-1,2.1-1.9,2.8c-0.9,0.7-2,1.1-3.1,1.1h-23.7c-1.7,0-3.3-0.4-4.7-1.1c-1.4-0.7-2.6-1.7-3.5-3c-0.9-1.2-1.6-2.6-1.9-4.2
		c-0.4-1.6-0.3-3.2,0.2-4.8l3.8-14.2c0.4-1.5,1.1-3,1.9-4.3c0.9-1.3,1.9-2.4,3.1-3.3c1.2-0.9,2.5-1.6,4-2.2c1.5-0.5,3-0.8,4.6-0.8
		h16.8c1.7,0,3.3,0.4,4.7,1.1c1.4,0.8,2.6,1.7,3.5,3c0.9,1.2,1.6,2.6,1.9,4.2c0.3,1.6,0.3,3.2-0.1,4.8l-1.1,4.3
		c-0.5,1.9-1.5,3.4-3,4.6c-1.5,1.2-3.3,1.7-5.2,1.7h-19l1.3-4.6c0.3-1.1,0.9-2,1.8-2.8c0.9-0.7,2-1.1,3.2-1.1h7.7
		c0.7,0,1.2-0.4,1.4-1.1l0.3-0.9c0.1-0.5,0-0.9-0.3-1.3c-0.3-0.4-0.7-0.6-1.1-0.6h-11.7C178.8,23.7,178.2,23.9,177.7,24.3z
		 M201.5,50.2l12.6-47.4c0.2-0.8,0.7-1.5,1.3-2c0.7-0.5,1.5-0.8,2.4-0.8h6.7c0.8,0,1.4,0.3,1.9,0.9c0.5,0.6,0.6,1.3,0.4,2l-9.4,35
		c-0.5,1.8-1.2,3.5-2.2,5c-1,1.5-2.2,2.8-3.6,3.9c-1.4,1.1-3,1.9-4.7,2.5C205.2,49.9,203.4,50.2,201.5,50.2z"/>
</g>
</svg>
