<?xml version="1.0" encoding="utf-8"?>
<!-- Generator: Adobe Illustrator 22.0.1, SVG Export Plug-In . SVG Version: 6.00 Build 0)  -->
<svg version="1.1" id="Layer_1" xmlns="http://www.w3.org/2000/svg" xmlns:xlink="http://www.w3.org/1999/xlink" x="0px" y="0px"
	 viewBox="0 0 69.8 59.2" style="enable-background:new 0 0 69.8 59.2;" xml:space="preserve">
<style type="text/css">
	.st0{fill-rule:evenodd;clip-rule:evenodd;fill:#0C2E44;}
</style>
<g>
	<path class="st0" d="M12.1,59.1H7v-1.5h1.4v-5.6H7v-1.5h5.1v1.5h-1.4v5.6h1.4V59.1L12.1,59.1z M21.1,59.2c-0.6,0-1.2-0.1-1.8-0.3
		c-0.5-0.2-1-0.5-1.4-0.9c-0.4-0.4-0.7-0.8-0.9-1.4c-0.2-0.6-0.3-1.2-0.3-2c0-0.7,0.1-1.3,0.3-1.9c0.2-0.6,0.5-1,0.9-1.4
		c0.4-0.4,0.8-0.7,1.4-0.9c0.6-0.2,1.2-0.3,1.8-0.3c0.4,0,0.7,0,1,0.1c0.3,0,0.6,0.1,0.8,0.2c0.3,0.1,0.5,0.2,0.7,0.2
		c0.2,0.1,0.4,0.2,0.6,0.3V53h-0.3c-0.1-0.1-0.2-0.2-0.4-0.3c-0.2-0.1-0.4-0.3-0.6-0.4c-0.2-0.1-0.4-0.2-0.7-0.3
		c-0.2-0.1-0.5-0.1-0.8-0.1c-0.3,0-0.6,0-0.9,0.1c-0.3,0.1-0.5,0.3-0.8,0.5c-0.2,0.2-0.4,0.5-0.6,0.9c-0.1,0.4-0.2,0.8-0.2,1.3
		c0,0.5,0.1,1,0.2,1.4c0.2,0.4,0.3,0.7,0.6,0.9c0.2,0.2,0.5,0.4,0.8,0.5c0.3,0.1,0.6,0.1,0.9,0.1c0.3,0,0.5,0,0.8-0.1
		c0.3-0.1,0.5-0.2,0.7-0.3c0.2-0.1,0.4-0.2,0.5-0.4c0.2-0.1,0.3-0.2,0.4-0.3h0.2v2.1c-0.2,0.1-0.4,0.2-0.6,0.3
		c-0.2,0.1-0.4,0.2-0.6,0.2c-0.3,0.1-0.5,0.1-0.8,0.2C21.9,59.2,21.5,59.2,21.1,59.2L21.1,59.2z M37.1,59.1h-2.3l-0.6-1.7H31
		l-0.6,1.7h-2.3l3.2-8.6h2.6L37.1,59.1L37.1,59.1z M33.6,55.7l-1.1-3.1l-1.1,3.1H33.6L33.6,55.7z M49.5,59.1h-2.2l-3.7-5.9v5.9h-2
		v-8.6h2.7l3.2,5v-5h2V59.1L49.5,59.1z M62.8,59.1h-2.2L57,53.1v5.9h-2v-8.6h2.7l3.2,5v-5h2V59.1z"/>
	<path class="st0" d="M42.4,5.5c-1.9,2.1-3.9,4-5.9,5.8c-1.9-2.6-4.1-5-6.4-7.4c7.4,8.3,12.3,18,14.9,28.8c0.6-0.8,1.1-1.7,1.7-2.5
		c-0.9-2.6-2-5.1-3.2-7.5c2.4-1.6,4.6-3.4,6.7-5.3c-0.3-1.3-0.8-2.5-1.4-3.8c-2,2.4-4.2,4.6-6.6,6.5c-1.1-2.1-2.4-4.1-3.7-6.1
		c2.3-1.7,4.6-3.7,6.7-5.8C44.2,7.1,43.3,6.3,42.4,5.5L42.4,5.5z M44.1,36.1c-8.8,5-19.8,3-25.7-4.5c-2.3,0.2-4.6,0.3-6.8,0.1
		c5.3,0,11.3-1.3,17.1-3.7c0.2,0.4,0.5,0.9,0.7,1.3C27.3,30,25.1,30.6,23,31C28.7,37.5,37.5,39.9,44.1,36.1L44.1,36.1z M39.8,21.8
		c0.3,0.8,0.7,1.6,1,2.4C38,25.9,35,27.3,32,28.4c1.8,2.6,3.8,5,5.9,7.3c-1,0-1.9,0-2.9,0C29.2,28,25,19,22.8,8.6
		c0.9,3.3,2,6.5,3.3,9.5c3-1.5,6-3.4,8.7-5.6c0.6,0.9,1.1,1.8,1.7,2.7c-3,2-6.2,3.7-9.5,4.9c1.2,2.4,2.5,4.7,3.9,6.9
		C34.1,25.6,37,23.8,39.8,21.8L39.8,21.8z M24.5,18.9c-4.5,2.1-9.2,3.5-14.2,4.2c1.5,0,2.9,0,4.4-0.2c0.3,2.2,1.1,4.4,2.3,6.5
		c0.1,0.1,0.1,0.3,0.2,0.4c1.4-0.2,2.8-0.6,4.2-1c-0.3-0.5-0.6-0.9-0.9-1.4c-0.9-1.6-1.6-3.3-2.1-4.9c2.4-0.4,4.7-0.9,6.9-1.7
		C24.9,20.2,24.7,19.5,24.5,18.9L24.5,18.9z M24.6,2.8c9.7-5.5,21.8-2.5,27.2,6.7c5.4,9.2,1.9,21.1-7.8,26.7
		c7.7-4.4,9.6-15.4,4.2-24.6C42.9,2.3,32.3-1.6,24.6,2.8L24.6,2.8z M14.4,21c1.1-0.3,2.2-0.6,3.3-0.9C16.4,13,18.9,6,24.6,2.8
		C17.7,6.7,14,13.9,14.4,21z"/>
	<path class="st0" d="M34.9,44.6c12.6,0,24.5,1,34.9,2.6c-11.1-0.6-22.8-0.9-34.9-0.9S11.1,46.7,0,47.3
		C10.4,45.6,22.3,44.6,34.9,44.6z"/>
</g>
</svg>
