<?xml version="1.0" encoding="utf-8"?>
<!-- Generator: Adobe Illustrator 22.0.1, SVG Export Plug-In . SVG Version: 6.00 Build 0)  -->
<svg version="1.1" id="Layer_1" xmlns="http://www.w3.org/2000/svg" xmlns:xlink="http://www.w3.org/1999/xlink" x="0px" y="0px"
	 viewBox="0 0 114.9 45.6" style="enable-background:new 0 0 114.9 45.6;" xml:space="preserve">
<style type="text/css">
	.st0{fill:#133C8A;}
	.st1{fill-rule:evenodd;clip-rule:evenodd;fill:#133C8A;}
	.st2{fill-rule:evenodd;clip-rule:evenodd;fill:#DA2128;}
</style>
<g>
	<g>
		<g>
			<g>
				<polygon class="st0" points="84.9,31.7 77,21.5 77,31.7 72.7,31.7 72.7,13.8 76.5,13.8 84.1,23.7 84.1,13.8 88.4,13.8 
					88.5,31.7 				"/>
				
					<rect x="91.3" y="13.8" transform="matrix(1 -1.045520e-03 1.045520e-03 1 -2.371622e-02 9.776475e-02)" class="st0" width="4.4" height="17.9"/>
				<path class="st0" d="M107.3,31.9c-2.5,0-4.8-0.9-6.5-2.7c-1.7-1.7-2.6-4-2.6-6.5l0,0c0-2.5,0.9-4.8,2.6-6.5
					c1.7-1.8,4-2.7,6.6-2.7c3.6,0,5.6,1.5,6.9,2.7l0.5,0.5L112,20l-0.6-0.5c-1.4-1.3-2.6-1.8-4.1-1.8c-2.6,0-4.6,2.2-4.6,5l0,0
					c0,2.9,2,5.1,4.7,5.1c1.8,0,2.9-0.7,4.2-1.9l0.5-0.5l2.9,2.9l-0.5,0.5C112.4,31,110.2,31.9,107.3,31.9z"/>
				<path class="st1" d="M64.4,31.7l-7.9-10.2l0,10.2l-4.3,0l0-17.9l3.8,0l7.7,9.9l0-9.9l4.3,0C64.5,5.7,56.4,0,47,0
					c-7.4,0-14,3.6-18.2,9.1c2.9,3.8,4.6,8.6,4.6,13.7s-1.7,9.9-4.6,13.7c4.2,5.5,10.8,9,18.2,9c9.4,0,17.5-5.7,20.9-13.9L64.4,31.7
					z M43.9,31.8l-3.5,0l-7.4-18l4.8,0l4.4,11.3l4.4-11.3l4.7,0L43.9,31.8z"/>
				<path class="st2" d="M18.8,41.7c-1.2,0.2-2.3,0.9-2.4,1.5c-0.1,0.5,0.7,0.6,1.7,0.3c1-0.3,2.1-0.8,2.4-1.3
					C20.7,41.7,19.9,41.4,18.8,41.7z M26.1,34.9c-1.1,0.3-2.2,1.5-2.4,2.5c-0.2,1,0.4,1.4,1.4,1c0.9-0.4,1.9-1.4,2.2-2.3
					C27.6,35.2,27.1,34.6,26.1,34.9z M19.5,36.3c-1.4,0.2-2.6,1.3-2.7,2.4c-0.1,1,1,1.7,2.3,1.5c1.2-0.2,2.4-1.2,2.6-2.2
					C21.8,36.8,20.9,36.1,19.5,36.3z M11.7,36.9c-1.5,0-2.6,1-2.5,2.2c0.1,1,1.3,1.8,2.7,1.8c1.4-0.1,2.5-0.9,2.5-2
					C14.4,37.8,13.2,36.9,11.7,36.9z M19.6,33.8c1.4-0.2,2.6-1.4,2.6-2.8c0-1.5-1.1-2.6-2.6-2.4c-1.5,0.1-2.8,1.5-2.7,2.9
					C17,32.9,18.2,34,19.6,33.8z M19.5,11.5c-1.5-0.1-2.6,1-2.6,2.4c0.1,1.4,1.2,2.7,2.6,2.8c1.5,0.2,2.7-0.9,2.7-2.3
					C22.3,13,21,11.6,19.5,11.5z M11.5,34.4c1.5-0.1,2.8-1.3,2.8-2.7c0-1.5-1.4-2.7-3-2.6c-1.6,0.1-2.8,1.4-2.7,2.9
					C8.7,33.3,10,34.5,11.5,34.4z M3,29.2c-1.4,0-2.5,1.2-2.3,2.6c0.2,1.4,1.4,2.5,2.8,2.6c1.4,0,2.5-1.1,2.4-2.5
					C5.8,30.4,4.5,29.2,3,29.2z M30.3,22.3c0,1.3,0.7,2.3,1.3,2.2c0.6-0.1,0.9-1.2,0.9-2.3C32.5,21,32,20,31.5,19.9
					C30.8,19.9,30.2,20.9,30.3,22.3z M26.7,19.7c-1.2,0-2.2,1.2-2.1,2.7c0,1.5,1.1,2.7,2.3,2.6c1.1-0.1,1.9-1.3,1.9-2.7
					C28.7,20.9,27.8,19.8,26.7,19.7z M19.7,25.6c1.5-0.1,2.6-1.4,2.6-3c-0.1-1.6-1.3-2.8-2.8-2.8c-1.5,0-2.7,1.4-2.7,3
					C16.8,24.4,18.1,25.6,19.7,25.6z M11.2,26c1.6-0.1,2.9-1.4,2.8-3.1c-0.1-1.6-1.4-2.9-3.1-2.8c-1.6,0.1-2.9,1.4-2.8,3.1
					C8.2,24.8,9.6,26,11.2,26z M2.8,26.2c1.5,0,2.7-1.4,2.6-3c-0.1-1.6-1.4-2.8-2.9-2.7c-1.5,0.1-2.6,1.4-2.5,3
					C0.1,25,1.3,26.3,2.8,26.2z M23.9,14.3c0.2,1.4,1.3,2.6,2.5,2.7c1.1,0.1,1.8-0.9,1.6-2.2c-0.3-1.3-1.3-2.4-2.3-2.6
					C24.5,12,23.7,13,23.9,14.3z M26.2,27.8c-1.1,0.2-2.1,1.3-2.3,2.6c-0.2,1.3,0.5,2.3,1.6,2.2c1.2-0.1,2.3-1.3,2.5-2.7
					C28.2,28.6,27.4,27.6,26.2,27.8z M10.8,17c1.6-0.1,2.8-1.4,2.8-2.9c-0.1-1.5-1.4-2.6-3-2.5c-1.5,0.1-2.8,1.3-2.8,2.8
					C7.9,15.9,9.2,17.1,10.8,17z M2.5,17.5c1.5-0.1,2.7-1.5,2.7-2.9c0-1.4-1.2-2.5-2.6-2.3c-1.4,0.2-2.5,1.4-2.6,2.8
					C0,16.6,1.1,17.7,2.5,17.5z M22.5,7.7c0.3,1,1.5,2.1,2.6,2.3c1,0.2,1.5-0.4,1.1-1.3c-0.4-0.9-1.4-1.8-2.4-2.1
					C22.8,6.2,22.2,6.7,22.5,7.7z M20.4,7.3c-0.3-1-1.5-1.9-2.7-2c-1.3-0.1-2.3,0.6-2.1,1.6c0.1,1.1,1.4,2.1,2.9,2.2
					C19.8,9.2,20.7,8.4,20.4,7.3z M10.5,9.1c1.5-0.1,2.6-1.1,2.5-2.2c-0.1-1-1.3-1.8-2.7-1.8c-1.4,0.1-2.5,1-2.6,2
					C7.8,8.3,9,9.2,10.5,9.1z M18.8,3.1c-0.3-0.4-1.4-0.9-2.4-1.1c-1.1-0.2-1.9,0-1.7,0.4c0.2,0.6,1.3,1.2,2.6,1.3
					C18.4,4,19.1,3.6,18.8,3.1z M29.7,15.8c0.5,1.1,1.2,1.9,1.7,1.7c0.5-0.2,0.5-1.3,0-2.4c-0.5-1.1-1.2-1.9-1.7-1.7
					C29.2,13.6,29.2,14.6,29.7,15.8z M31.7,26.9c-0.5-0.1-1.2,0.7-1.5,1.9c-0.4,1.2-0.3,2.3,0.2,2.4c0.5,0.1,1.2-0.7,1.5-1.9
					C32.3,28.1,32.2,27,31.7,26.9z M29,34.4c-0.6,0.9-1,1.8-0.8,1.9c0.2,0.1,0.8-0.6,1.4-1.5c0.6-0.9,1-1.8,0.8-1.9
					C30.2,32.8,29.6,33.4,29,34.4z M29.5,11.6c0.2-0.1-0.3-0.9-0.9-1.8c-0.7-0.9-1.4-1.5-1.5-1.4c-0.2,0.1,0.3,0.9,0.9,1.8
					C28.7,11.1,29.3,11.7,29.5,11.6z M22,4.7c0.9,0.6,1.8,0.9,1.9,0.7c0.1-0.2-0.6-0.7-1.5-1.3c-0.9-0.6-1.8-0.9-1.9-0.7
					C20.4,3.6,21,4.1,22,4.7z M23.5,40.4c-0.9,0.6-1.5,1.2-1.4,1.4c0.1,0.1,0.9-0.2,1.8-0.9c0.9-0.6,1.5-1.2,1.4-1.4
					C25.2,39.4,24.4,39.8,23.5,40.4z"/>
			</g>
		</g>
	</g>
	<g>
		<path class="st0" d="M76.2,37.6c0.3-0.4,0.6-0.6,1.1-0.6c0.6,0,1,0.3,1,0.9c0,0.5,0,0.9,0,1.4c0,0.2,0,0.2,0.2,0.2
			c0.3,0,0.3,0,0.3,0.3c0,0.1,0,0.2,0,0.2c0,0.1,0,0.1-0.1,0.1c-0.3,0-0.7,0-1,0c-0.1,0-0.1,0-0.1-0.1c0,0,0-0.1,0-0.1
			c0-0.5,0-1,0-1.5c0-0.1,0-0.1,0-0.2c0-0.4-0.2-0.6-0.6-0.5c-0.4,0.1-0.6,0.4-0.6,0.8c-0.1,0.3,0,0.6,0,0.9c0,0.1,0,0.1,0.1,0.1
			c0.1,0,0.2,0,0.2,0c0.1,0,0.1,0,0.1,0.1c0,0.1,0,0.3,0,0.4c0,0.1,0,0.1-0.1,0.1c-0.5,0-1,0-1.5,0c-0.1,0-0.1,0-0.1-0.1
			c0-0.1,0-0.3,0-0.4c0-0.1,0-0.1,0.1-0.1c0.1,0,0.2,0,0.2,0c0.1,0,0.1,0,0.1-0.1c0-0.5,0-1.1,0-1.6c0-0.1,0-0.1-0.1-0.1
			c-0.1,0-0.2,0-0.2,0c-0.1,0-0.1,0-0.1-0.1c0-0.1,0-0.3,0-0.4c0-0.1,0-0.1,0.1-0.1c0.3,0,0.5,0,0.8,0c0.2,0,0.3,0.1,0.3,0.4
			C76.2,37.5,76.2,37.6,76.2,37.6z"/>
		<path class="st0" d="M88.7,37.6c0.1-0.1,0.1-0.1,0.1-0.2c0.4-0.4,0.9-0.5,1.4-0.3c0.3,0.1,0.4,0.3,0.5,0.6c0,0.1,0,0.3,0,0.4
			c0,0.4,0,0.9,0,1.3c0,0.1,0,0.1,0.1,0.1c0.1,0,0.1,0,0.2,0c0.1,0,0.1,0,0.1,0.1c0,0.1,0,0.3,0,0.4c0,0.1,0,0.1-0.1,0.1
			c-0.3,0-0.7,0-1,0C90,40.1,90,40.1,90,40c0-0.6,0-1.1,0-1.7c0-0.1,0-0.2,0-0.3c0-0.2-0.2-0.3-0.4-0.3c-0.3,0-0.6,0.1-0.8,0.4
			c-0.1,0.2-0.2,0.4-0.2,0.6c0,0.2,0,0.5,0,0.7c0,0.1,0,0.1,0.1,0.1c0.1,0,0.1,0,0.2,0c0.1,0,0.1,0,0.1,0.1c0,0.1,0,0.3,0,0.4
			c0,0.1,0,0.1-0.1,0.1c-0.1,0-0.3,0-0.4,0c-0.3,0-0.6,0-1,0c-0.1,0-0.1,0-0.1-0.1c0-0.1,0-0.2,0-0.4c0-0.1,0-0.1,0.1-0.1
			c0.1,0,0.1,0,0.2,0c0.1,0,0.1,0,0.1-0.1c0-0.4,0-0.8,0-1.2c0-0.1,0-0.3,0-0.4c0-0.1,0-0.1-0.2-0.1c-0.1,0-0.1,0-0.2,0
			c-0.1,0-0.1,0-0.1-0.1c0-0.1,0-0.3,0-0.4c0-0.1,0-0.1,0.1-0.1c0.2,0,0.5,0,0.7,0c0.3,0,0.4,0.1,0.4,0.4
			C88.7,37.5,88.7,37.5,88.7,37.6z"/>
		<path class="st0" d="M102.4,40.2c-0.5,0-0.9-0.2-1.2-0.5c-0.5-0.5-0.6-1.4-0.1-2c0.7-0.9,2.2-0.9,2.8,0.1c0.5,0.8,0.2,1.9-0.7,2.3
			C102.9,40.1,102.6,40.2,102.4,40.2z M103.2,38.6C103.2,38.6,103.3,38.5,103.2,38.6c0-0.4-0.2-0.7-0.5-0.9
			c-0.3-0.1-0.6-0.1-0.9,0.1c-0.3,0.2-0.4,0.7-0.2,1.1c0.1,0.4,0.6,0.7,1,0.6C103,39.4,103.3,39.1,103.2,38.6z"/>
		<path class="st0" d="M110.1,39.7c-0.1,0.1-0.1,0.2-0.2,0.2c-0.4,0.4-1.1,0.3-1.5-0.1c-0.4-0.4-0.3-1.1,0.2-1.3
			c0.3-0.2,0.7-0.3,1-0.3c0.1,0,0.2,0,0.3,0c0.1,0,0.1,0,0.1-0.1c0-0.3-0.2-0.4-0.4-0.5c-0.3,0-0.6,0.1-0.8,0.2
			c-0.1,0.1-0.1,0.1-0.2-0.1c-0.1-0.1-0.1-0.2-0.2-0.3c0,0,0-0.1,0-0.1c0.6-0.3,1.2-0.5,1.8-0.2c0.4,0.1,0.5,0.4,0.6,0.8
			c0.1,0.3,0,0.6,0,0.9c0,0.2,0,0.4,0,0.5c0,0.1,0,0.1,0.1,0.1c0,0,0,0,0,0c0.3,0,0.3,0,0.3,0.3c0,0.1,0,0.2,0,0.2
			c0,0.1,0,0.1-0.1,0.1c-0.2,0-0.4,0-0.7,0C110.3,40.1,110.2,40,110.1,39.7C110.2,39.7,110.2,39.7,110.1,39.7z M109.9,38.7
			c-0.2,0-0.4,0-0.6,0.1c-0.1,0.1-0.2,0.2-0.3,0.3c0,0.3,0.2,0.5,0.5,0.4c0.3-0.1,0.5-0.4,0.6-0.7C110.1,38.7,110.1,38.7,109.9,38.7
			z"/>
		<path class="st0" d="M83.3,38.7c-0.3,0-0.6,0-0.9,0c-0.1,0-0.2,0-0.1,0.2c0.1,0.5,0.6,0.7,1.1,0.6c0.2,0,0.4-0.1,0.6-0.2
			c0.1,0,0.1,0,0.1,0c0.1,0.1,0.1,0.2,0.2,0.4c0,0.1,0,0.1,0,0.2c-0.3,0.2-0.6,0.3-0.9,0.3c-0.4,0-0.7,0-1.1-0.2
			c-0.4-0.2-0.7-0.6-0.8-1.1c-0.1-0.5,0-0.9,0.3-1.3c0.4-0.6,1.4-0.8,2-0.4c0.3,0.2,0.5,0.6,0.5,1c0,0.1,0,0.2,0,0.4
			c0,0.1,0,0.1-0.1,0.1C83.9,38.7,83.6,38.7,83.3,38.7z M82.9,38.3c0.2,0,0.4,0,0.5,0c0,0,0.1,0,0.1-0.1c0-0.3-0.2-0.5-0.4-0.5
			c-0.4-0.1-0.7,0.1-0.8,0.5c0,0.1,0,0.1,0.1,0.1C82.5,38.3,82.7,38.3,82.9,38.3z"/>
		<path class="st0" d="M93.4,38.7c-0.3,0-0.6,0-0.9,0c-0.1,0-0.1,0-0.1,0.1c0.1,0.4,0.4,0.7,0.8,0.7c0.3,0,0.6-0.1,0.8-0.3
			c0.1-0.1,0.1,0,0.1,0c0.1,0.1,0.1,0.2,0.2,0.3c0.1,0.1,0.1,0.1-0.1,0.2c-0.3,0.2-0.6,0.3-0.9,0.3c-0.4,0-0.8,0-1.2-0.3
			c-0.4-0.3-0.6-0.6-0.7-1.1c-0.1-0.6,0.1-1.1,0.5-1.4c0.5-0.5,1.5-0.5,2,0c0.3,0.3,0.4,0.8,0.4,1.2c0,0.1-0.1,0.1-0.1,0.1
			C94,38.7,93.7,38.7,93.4,38.7z M93,38.2c0.2,0,0.4,0,0.5,0c0.1,0,0.1,0,0.1-0.1c0-0.3-0.2-0.5-0.5-0.5c-0.4,0-0.6,0.2-0.7,0.5
			c0,0.1,0,0.1,0.1,0.1C92.7,38.2,92.9,38.2,93,38.2z"/>
		<path class="st0" d="M99.6,38.6c0,0.3,0,0.5,0,0.8c0,0.1,0,0.1,0.1,0.1c0.1,0,0.2,0,0.3,0c0.1,0,0.1,0,0.1,0.1c0,0.1,0,0.2,0,0.4
			c0,0.1,0,0.1-0.1,0.1c-0.4,0-0.8,0-1.1,0c-0.1,0-0.2,0-0.3,0c-0.1,0-0.1,0-0.1-0.1c0-0.1,0-0.2,0-0.4c0-0.1,0-0.1,0.1-0.1
			c0.1,0,0.2,0,0.2,0c0.1,0,0.1,0,0.1-0.1c0-0.6,0-1.1,0-1.7c0-0.1,0-0.1-0.1-0.1c-0.1,0-0.2,0-0.3,0c-0.1,0-0.1,0-0.1-0.1
			c0-0.1,0-0.3,0-0.4c0-0.1,0-0.1,0.1-0.1c0.1,0,0.2,0,0.2,0c0.1,0,0.1,0,0.1-0.1c0-0.1,0-0.3,0-0.4c0.1-0.3,0.3-0.5,0.6-0.6
			c0.2-0.1,0.5-0.1,0.7-0.1c0.1,0,0.1,0,0.1,0.1c0,0.1,0,0.3,0,0.4c0,0.1,0,0.1-0.1,0.1c-0.1,0-0.2,0-0.3,0c-0.3,0-0.4,0.3-0.4,0.5
			c0,0.1,0.1,0.1,0.1,0.1c0.2,0,0.3,0,0.5,0c0.1,0,0.1,0,0.1,0.1c0,0.1,0,0.2,0,0.3c0,0.1,0,0.1-0.1,0.1c-0.1,0-0.3,0-0.4,0
			c-0.1,0-0.1,0-0.1,0.1C99.6,38,99.6,38.3,99.6,38.6z"/>
		<path class="st0" d="M73.6,40.1c-0.3,0-0.5,0-0.8,0c-0.1,0-0.1,0-0.1-0.1c0-0.1,0-0.2,0-0.4c0-0.1,0-0.1,0.1-0.1
			c0.1,0,0.2,0,0.3,0c0.1,0,0.1,0,0.1-0.1c0-0.2,0-0.3,0-0.5c0-0.8,0-1.5,0-2.3c0-0.1,0-0.1-0.1-0.1c-0.1,0-0.2,0-0.3,0
			c-0.1,0-0.1,0-0.1-0.1c0-0.1,0-0.3,0-0.4c0-0.1,0-0.1,0.1-0.1c0.3,0,0.5,0,0.8,0c0.2,0,0.5,0,0.7,0c0.1,0,0.1,0,0.1,0.1
			c0,0.1,0,0.3,0,0.4c0,0.1,0,0.1-0.1,0.1c-0.1,0-0.2,0-0.2,0c-0.2,0-0.2,0-0.2,0.2c0,0.9,0,1.7,0,2.6c0,0.1,0,0.1,0,0.2
			c0,0.1,0,0.1,0.1,0.1c0.1,0,0.2,0,0.3,0c0.1,0,0.1,0,0.1,0.1c0,0.1,0,0.3,0,0.4c0,0.1,0,0.1-0.1,0.1
			C74.1,40.1,73.9,40.1,73.6,40.1z"/>
		<path class="st0" d="M96.1,38.4c0,0.2,0,0.4,0,0.5c0,0.4,0.2,0.6,0.6,0.6c0.2,0,0.2,0,0.2,0.2c0,0.1,0,0.2,0,0.4
			c0,0,0,0.1-0.1,0.1c-0.4,0-0.8,0-1.1-0.3c-0.2-0.2-0.3-0.5-0.3-0.8c0-0.4,0-0.8,0-1.2c0-0.1,0-0.1-0.1-0.1c-0.1,0-0.1,0-0.2,0
			c-0.1,0-0.1,0-0.1-0.1c0-0.1,0-0.3,0-0.4c0-0.1,0-0.1,0.1-0.1c0.1,0,0.2,0,0.3,0c0.1,0,0.1,0,0.1-0.1c0-0.2,0-0.4,0-0.6
			c0-0.1,0-0.1,0.1-0.1c0.2,0,0.3,0,0.5,0c0.1,0,0.1,0,0.1,0.1c0,0.2,0,0.4,0,0.6c0,0.1,0,0.1,0.1,0.1c0.1,0,0.3,0,0.4,0
			c0.1,0,0.1,0,0.1,0.1c0,0.1,0,0.2,0,0.4c0,0.1,0,0.1-0.1,0.1c-0.2,0-0.3,0-0.5,0c-0.1,0-0.1,0-0.1,0.1
			C96.1,38,96.1,38.2,96.1,38.4C96.1,38.4,96.1,38.4,96.1,38.4z"/>
		<path class="st0" d="M80.3,38.4c0,0.2,0,0.3,0,0.5c0,0.4,0.2,0.6,0.6,0.6c0.2,0,0.2,0,0.2,0.2c0,0.1,0,0.2,0,0.4
			c0,0,0,0.1-0.1,0.1c-0.4,0-0.8,0-1.1-0.3c-0.2-0.2-0.3-0.4-0.3-0.7c0-0.4,0-0.9,0-1.3c0-0.2,0-0.2-0.2-0.2c0,0-0.1,0-0.1,0
			c-0.2,0-0.2,0-0.2-0.2c0-0.1,0-0.2,0-0.3c0-0.1,0-0.1,0.1-0.1c0.1,0,0.2,0,0.3,0c0.1,0,0.1,0,0.1-0.1c0-0.2,0-0.4,0-0.6
			c0-0.1,0-0.1,0.1-0.1c0.2,0,0.4,0,0.5,0c0.1,0,0.1,0,0.1,0.1c0,0.2,0,0.4,0,0.6c0,0.2,0,0.2,0.2,0.2c0.1,0,0.3,0,0.4,0
			c0.1,0,0.1,0,0.1,0.1c0,0.1,0,0.2,0,0.4c0,0.1,0,0.1-0.1,0.1c-0.2,0-0.3,0-0.5,0c-0.1,0-0.1,0-0.1,0.1
			C80.3,38,80.3,38.2,80.3,38.4z"/>
		<path class="st0" d="M105.7,37.6c0.1-0.2,0.2-0.3,0.4-0.5c0.2-0.1,0.4-0.2,0.6-0.2c0.1,0,0.1,0,0.1,0.1c0,0.2,0,0.4,0,0.5
			c0,0.1,0,0.1-0.1,0.1c-0.6,0-0.9,0.4-0.9,0.9c0,0.2,0,0.5,0,0.7c0,0.1,0,0.1,0.1,0.1c0.1,0,0.2,0,0.2,0c0.1,0,0.1,0,0.1,0.1
			c0,0.1,0,0.3,0,0.4c0,0.1,0,0.1-0.1,0.1c-0.5,0-1,0-1.4,0c-0.1,0-0.1,0-0.1-0.1c0-0.1,0-0.3,0-0.4c0-0.1,0-0.1,0.1-0.1
			c0.1,0,0.2,0,0.2,0c0.1,0,0.1,0,0.1-0.1c0-0.2,0-0.5,0-0.7c0-0.3,0-0.6,0-0.9c0-0.2,0-0.2-0.2-0.2c0,0-0.1,0-0.1,0
			c-0.1,0-0.1,0-0.1-0.1c0-0.1,0-0.2,0-0.4c0-0.1,0-0.1,0.1-0.1c0.2,0,0.5,0,0.7,0c0.3,0,0.4,0.1,0.4,0.3
			C105.7,37.5,105.7,37.6,105.7,37.6z"/>
		<path class="st0" d="M86,37.7c0.1-0.2,0.2-0.4,0.4-0.5c0.2-0.1,0.4-0.2,0.6-0.2c0.1,0,0.1,0,0.1,0.1c0,0.2,0,0.4,0,0.6
			c0,0.1,0,0.1-0.1,0.1c-0.2,0-0.3,0-0.5,0.1c-0.3,0.2-0.4,0.5-0.4,0.8c0,0.2,0,0.5,0,0.7c0,0.1,0,0.1,0.1,0.1c0.1,0,0.2,0,0.2,0
			c0.1,0,0.1,0,0.1,0.1c0,0.1,0,0.3,0,0.4c0,0.1-0.1,0.1-0.1,0.1c-0.3,0-0.5,0-0.8,0c-0.2,0-0.4,0-0.6,0c-0.1,0-0.1,0-0.1-0.1
			c0-0.1,0-0.2,0-0.4c0-0.1,0-0.1,0.1-0.1c0.1,0,0.1,0,0.2,0c0.1,0,0.1,0,0.1-0.1c0-0.3,0-0.6,0-0.9c0-0.2,0-0.5,0-0.7
			c0-0.1,0-0.2-0.2-0.2c-0.1,0-0.1,0-0.2,0c-0.1,0-0.1,0-0.1-0.1c0-0.1,0-0.3,0-0.4c0-0.1,0-0.1,0.1-0.1c0.3,0,0.5,0,0.8,0
			c0.2,0,0.3,0.1,0.3,0.3C86,37.5,86,37.6,86,37.7z"/>
		<path class="st0" d="M112.6,37.6c0,0.5,0,1,0,1.5c0,0,0,0.1,0,0.1c0,0.2,0.1,0.3,0.3,0.3c0.1,0,0.1,0,0.1,0.1c0,0.1,0,0.3,0,0.4
			c0,0.1,0,0.1-0.1,0.1c-0.2,0-0.5,0-0.7-0.1c-0.2-0.1-0.3-0.3-0.4-0.4c0-0.1-0.1-0.3-0.1-0.4c0-0.8,0-1.7,0-2.5
			c0-0.1,0-0.1-0.1-0.1c-0.1,0-0.2,0-0.2,0c-0.1,0-0.1,0-0.1-0.1c0-0.1,0-0.3,0-0.4c0-0.1,0-0.1,0.1-0.1c0.4,0,0.7,0,1.1,0
			c0.1,0,0.1,0.1,0.1,0.1c0,0.4,0,0.8,0,1.2C112.6,37.3,112.6,37.5,112.6,37.6z"/>
		<path class="st0" d="M114.1,37.6c0,0.5,0,1,0,1.5c0,0,0,0.1,0,0.1c0,0.2,0.1,0.3,0.3,0.3c0.1,0,0.1,0,0.1,0.1c0,0.1,0,0.3,0,0.4
			c0,0.1,0,0.1-0.1,0.1c-0.2,0-0.5,0-0.7-0.1c-0.2-0.1-0.3-0.3-0.4-0.4c0-0.1-0.1-0.3-0.1-0.4c0-0.8,0-1.7,0-2.5
			c0-0.1,0-0.1-0.1-0.1c-0.1,0-0.2,0-0.2,0c-0.1,0-0.1,0-0.1-0.1c0-0.1,0-0.3,0-0.4c0-0.1,0-0.1,0.1-0.1c0.4,0,0.7,0,1.1,0
			c0.1,0,0.1,0.1,0.1,0.1c0,0.4,0,0.8,0,1.2C114.1,37.3,114.1,37.5,114.1,37.6z"/>
	</g>
</g>
</svg>
